<?xml version="1.0" encoding="UTF-8" standalone="no"?>
<!-- Created with Inkscape (http://www.inkscape.org/) -->

<svg
   xmlns:dc="http://purl.org/dc/elements/1.1/"
   xmlns:cc="http://creativecommons.org/ns#"
   xmlns:rdf="http://www.w3.org/1999/02/22-rdf-syntax-ns#"
   xmlns:svg="http://www.w3.org/2000/svg"
   xmlns="http://www.w3.org/2000/svg"
   xmlns:sodipodi="http://sodipodi.sourceforge.net/DTD/sodipodi-0.dtd"
   xmlns:inkscape="http://www.inkscape.org/namespaces/inkscape"
   width="295.69986"
   height="609.16663"
   id="svg2"
   version="1.1"
   inkscape:version="0.48.2 r9819"
   sodipodi:docname="Icon!.svg"
   inkscape:export-filename="/Users/jacob/Dropbox/Unit of Creativity/Clients/Treeduino/Jacob's Seecrit Design Clubhouse/Icon!.png"
   inkscape:export-xdpi="37.822163"
   inkscape:export-ydpi="37.822163">
  <defs
     id="defs4">
    <inkscape:path-effect
       effect="spiro"
       id="path-effect2998"
       is_visible="true" />
    <inkscape:path-effect
       effect="spiro"
       id="path-effect2994"
       is_visible="true" />
  </defs>
  <sodipodi:namedview
     id="base"
     pagecolor="#ffffff"
     bordercolor="#666666"
     borderopacity="1.0"
     inkscape:pageopacity="0.0"
     inkscape:pageshadow="2"
     inkscape:zoom="0.7"
     inkscape:cx="103.4506"
     inkscape:cy="325.08824"
     inkscape:document-units="px"
     inkscape:current-layer="layer1"
     showgrid="false"
     fit-margin-top="0"
     fit-margin-left="0"
     fit-margin-right="0"
     fit-margin-bottom="0"
     inkscape:window-width="1127"
     inkscape:window-height="769"
     inkscape:window-x="215"
     inkscape:window-y="34"
     inkscape:window-maximized="0" />
  <metadata
     id="metadata7">
    <rdf:RDF>
      <cc:Work
         rdf:about="">
        <dc:format>image/svg+xml</dc:format>
        <dc:type
           rdf:resource="http://purl.org/dc/dcmitype/StillImage" />
        <dc:title></dc:title>
      </cc:Work>
    </rdf:RDF>
  </metadata>
  <g
     inkscape:label="Layer 1"
     inkscape:groupmode="layer"
     id="layer1"
     transform="translate(-60.609153,-394.1658)">
    <path
       inkscape:connector-curvature="0"
       d="m 210.29066,1003.3324 13.73195,-23.7785 -9.7957,0 0,-121.53887 25.00226,23.66499 c 1.61432,2.01399 2.74677,4.64908 2.8095,7.35973 0,10.9657 0.003,17.47763 0.008,19.87464 -4.62911,1.62478 -7.97038,5.98919 -7.97038,11.17764 0,6.56374 5.32626,11.89048 11.89237,11.89048 6.56896,0 11.89332,-5.32627 11.89332,-11.89048 0,-5.18845 -3.33937,-9.55286 -7.96468,-11.17764 l 0.003,-19.64178 c 0,-5.32341 -2.9207,-10.90154 -6.34466,-14.45191 0.1017,0.0969 0.21005,0.19769 -0.002,-0.006 -0.0846,-0.0751 -26.52391,-25.10776 -26.52391,-25.10776 -1.61195,-2.0097 -2.73727,-4.64337 -2.8019,-7.35212 l 0,-13.74906 c 9.08287,-1.82247 15.92604,-9.84322 15.92604,-19.46452 0,-10.9695 -8.89184,-19.86133 -19.85801,-19.86133 -10.96949,0 -19.86181,8.89183 -19.86181,19.86133 0,9.6232 6.84887,17.64396 15.93935,19.46642 l 0,13.50812 c 0,0.0347 -0.002,0.0694 0,0.10455 l 0,29.87754 c -0.0689,2.70352 -1.19565,5.33387 -2.8095,7.34167 0,0 -26.43742,25.02697 -26.52296,25.10443 -0.21243,0.20054 -0.1017,0.10075 -0.002,0.002 -3.42349,3.55037 -6.34229,9.13087 -6.34229,14.45523 l 0.004,18.92896 -7.97276,0 0,23.78474 23.78237,0 0,-23.78474 -7.96231,0 c 0,0 0.009,-4.98553 0.009,-19.16086 0.0623,-2.71113 1.19328,-5.34908 2.8076,-7.36211 l 25.00701,-23.67022 0,91.81673 -9.81138,0 13.73004,23.7785 z"
       id="path1334"
       style="fill:#32b55b;fill-opacity:1" />
    <path
       style="fill:#32b55b;fill-opacity:1;stroke:none"
       d="m 206.07113,478.5955 c 0,0 -80.3983,235.73675 -145.461977,313.14729 99.141627,52.20922 235.459117,63.21978 295.699857,1.87673 C 285.12118,695.13361 206.07113,478.5955 206.07113,478.5955 z"
       id="path3012"
       inkscape:connector-curvature="0"
       sodipodi:nodetypes="cccc" />
    <path
       sodipodi:type="arc"
       style="fill:#aa0000;fill-opacity:1;fill-rule:nonzero;stroke:none"
       id="path3788"
       sodipodi:cx="239.40616"
       sodipodi:cy="136.32977"
       sodipodi:rx="11.111678"
       sodipodi:ry="11.111678"
       d="m 250.51784,136.32977 c 0,6.13681 -4.97487,11.11168 -11.11168,11.11168 -6.13681,0 -11.11168,-4.97487 -11.11168,-11.11168 0,-6.13681 4.97487,-11.11168 11.11168,-11.11168 6.13681,0 11.11168,4.97487 11.11168,11.11168 z"
       transform="matrix(0.54545455,0,0,0.54545455,69.42503,483.53079)" />
    <path
       transform="matrix(0.54545455,0,0,0.54545455,106.2956,516.86582)"
       d="m 250.51784,136.32977 c 0,6.13681 -4.97487,11.11168 -11.11168,11.11168 -6.13681,0 -11.11168,-4.97487 -11.11168,-11.11168 0,-6.13681 4.97487,-11.11168 11.11168,-11.11168 6.13681,0 11.11168,4.97487 11.11168,11.11168 z"
       sodipodi:ry="11.111678"
       sodipodi:rx="11.111678"
       sodipodi:cy="136.32977"
       sodipodi:cx="239.40616"
       id="path3790"
       style="fill:#aa0000;fill-opacity:1;fill-rule:nonzero;stroke:none"
       sodipodi:type="arc" />
    <path
       sodipodi:type="arc"
       style="fill:#aa0000;fill-opacity:1;fill-rule:nonzero;stroke:none"
       id="path3792"
       sodipodi:cx="239.40616"
       sodipodi:cy="136.32977"
       sodipodi:rx="11.111678"
       sodipodi:ry="11.111678"
       d="m 250.51784,136.32977 c 0,6.13681 -4.97487,11.11168 -11.11168,11.11168 -6.13681,0 -11.11168,-4.97487 -11.11168,-11.11168 0,-6.13681 4.97487,-11.11168 11.11168,-11.11168 6.13681,0 11.11168,4.97487 11.11168,11.11168 z"
       transform="matrix(0.54545455,0,0,0.54545455,41.645837,554.24146)" />
    <path
       transform="matrix(0.54545455,0,0,0.54545455,73.465642,565.35314)"
       d="m 250.51784,136.32977 c 0,6.13681 -4.97487,11.11168 -11.11168,11.11168 -6.13681,0 -11.11168,-4.97487 -11.11168,-11.11168 0,-6.13681 4.97487,-11.11168 11.11168,-11.11168 6.13681,0 11.11168,4.97487 11.11168,11.11168 z"
       sodipodi:ry="11.111678"
       sodipodi:rx="11.111678"
       sodipodi:cy="136.32977"
       sodipodi:cx="239.40616"
       id="path3794"
       style="fill:#c87137;fill-opacity:1;fill-rule:nonzero;stroke:none"
       sodipodi:type="arc" />
    <path
       transform="matrix(0.54545455,0,0,0.54545455,105.79052,578.9902)"
       d="m 250.51784,136.32977 c 0,6.13681 -4.97487,11.11168 -11.11168,11.11168 -6.13681,0 -11.11168,-4.97487 -11.11168,-11.11168 0,-6.13681 4.97487,-11.11168 11.11168,-11.11168 6.13681,0 11.11168,4.97487 11.11168,11.11168 z"
       sodipodi:ry="11.111678"
       sodipodi:rx="11.111678"
       sodipodi:cy="136.32977"
       sodipodi:cx="239.40616"
       id="path3796"
       style="fill:#2aff80;fill-opacity:1;fill-rule:nonzero;stroke:none"
       sodipodi:type="arc" />
    <path
       sodipodi:type="arc"
       style="fill:#aa0000;fill-opacity:1;fill-rule:nonzero;stroke:none"
       id="path3798"
       sodipodi:cx="239.40616"
       sodipodi:cy="136.32977"
       sodipodi:rx="11.111678"
       sodipodi:ry="11.111678"
       d="m 250.51784,136.32977 c 0,6.13681 -4.97487,11.11168 -11.11168,11.11168 -6.13681,0 -11.11168,-4.97487 -11.11168,-11.11168 0,-6.13681 4.97487,-11.11168 11.11168,-11.11168 6.13681,0 11.11168,4.97487 11.11168,11.11168 z"
       transform="matrix(0.54545455,0,0,0.54545455,137.61033,590.10188)" />
    <path
       transform="matrix(0.54545455,0,0,0.54545455,16.392023,624.95214)"
       d="m 250.51784,136.32977 c 0,6.13681 -4.97487,11.11168 -11.11168,11.11168 -6.13681,0 -11.11168,-4.97487 -11.11168,-11.11168 0,-6.13681 4.97487,-11.11168 11.11168,-11.11168 6.13681,0 11.11168,4.97487 11.11168,11.11168 z"
       sodipodi:ry="11.111678"
       sodipodi:rx="11.111678"
       sodipodi:cy="136.32977"
       sodipodi:cx="239.40616"
       id="path3800"
       style="fill:#aa0000;fill-opacity:1;fill-rule:nonzero;stroke:none"
       sodipodi:type="arc" />
    <path
       sodipodi:type="arc"
       style="fill:#c87137;fill-opacity:1;fill-rule:nonzero;stroke:none"
       id="path3802"
       sodipodi:cx="239.40616"
       sodipodi:cy="136.32977"
       sodipodi:rx="11.111678"
       sodipodi:ry="11.111678"
       d="m 250.51784,136.32977 c 0,6.13681 -4.97487,11.11168 -11.11168,11.11168 -6.13681,0 -11.11168,-4.97487 -11.11168,-11.11168 0,-6.13681 4.97487,-11.11168 11.11168,-11.11168 6.13681,0 11.11168,4.97487 11.11168,11.11168 z"
       transform="matrix(0.54545455,0,0,0.54545455,47.201675,637.57905)" />
    <path
       sodipodi:type="arc"
       style="fill:#2aff80;fill-opacity:1;fill-rule:nonzero;stroke:none"
       id="path3804"
       sodipodi:cx="239.40616"
       sodipodi:cy="136.32977"
       sodipodi:rx="11.111678"
       sodipodi:ry="11.111678"
       d="m 250.51784,136.32977 c 0,6.13681 -4.97487,11.11168 -11.11168,11.11168 -6.13681,0 -11.11168,-4.97487 -11.11168,-11.11168 0,-6.13681 4.97487,-11.11168 11.11168,-11.11168 6.13681,0 11.11168,4.97487 11.11168,11.11168 z"
       transform="matrix(0.54545455,0,0,0.54545455,82.051935,647.1755)" />
    <path
       transform="matrix(0.54545455,0,0,0.54545455,119.42759,652.73134)"
       d="m 250.51784,136.32977 c 0,6.13681 -4.97487,11.11168 -11.11168,11.11168 -6.13681,0 -11.11168,-4.97487 -11.11168,-11.11168 0,-6.13681 4.97487,-11.11168 11.11168,-11.11168 6.13681,0 11.11168,4.97487 11.11168,11.11168 z"
       sodipodi:ry="11.111678"
       sodipodi:rx="11.111678"
       sodipodi:cy="136.32977"
       sodipodi:cx="239.40616"
       id="path3806"
       style="fill:#c87137;fill-opacity:1;fill-rule:nonzero;stroke:none"
       sodipodi:type="arc" />
    <path
       sodipodi:type="arc"
       style="fill:#aa0000;fill-opacity:1;fill-rule:nonzero;stroke:none"
       id="path3808"
       sodipodi:cx="239.40616"
       sodipodi:cy="136.32977"
       sodipodi:rx="11.111678"
       sodipodi:ry="11.111678"
       d="m 250.51784,136.32977 c 0,6.13681 -4.97487,11.11168 -11.11168,11.11168 -6.13681,0 -11.11168,-4.97487 -11.11168,-11.11168 0,-6.13681 4.97487,-11.11168 11.11168,-11.11168 6.13681,0 11.11168,4.97487 11.11168,11.11168 z"
       transform="matrix(0.54545455,0,0,0.54545455,158.82354,657.7821)" />
    <path
       sodipodi:type="arc"
       style="fill:#aa0000;fill-opacity:1;fill-rule:nonzero;stroke:none"
       id="path3810"
       sodipodi:cx="239.40616"
       sodipodi:cy="136.32977"
       sodipodi:rx="11.111678"
       sodipodi:ry="11.111678"
       d="m 250.51784,136.32977 c 0,6.13681 -4.97487,11.11168 -11.11168,11.11168 -6.13681,0 -11.11168,-4.97487 -11.11168,-11.11168 0,-6.13681 4.97487,-11.11168 11.11168,-11.11168 6.13681,0 11.11168,4.97487 11.11168,11.11168 z"
       transform="matrix(0.54545455,0,0,0.54545455,-30.074994,694.14759)" />
    <path
       transform="matrix(0.54545455,0,0,0.54545455,0.73465789,706.7745)"
       d="m 250.51784,136.32977 c 0,6.13681 -4.97487,11.11168 -11.11168,11.11168 -6.13681,0 -11.11168,-4.97487 -11.11168,-11.11168 0,-6.13681 4.97487,-11.11168 11.11168,-11.11168 6.13681,0 11.11168,4.97487 11.11168,11.11168 z"
       sodipodi:ry="11.111678"
       sodipodi:rx="11.111678"
       sodipodi:cy="136.32977"
       sodipodi:cx="239.40616"
       id="path3812"
       style="fill:#aa0000;fill-opacity:1;fill-rule:nonzero;stroke:none"
       sodipodi:type="arc" />
    <path
       transform="matrix(0.54545455,0,0,0.54545455,35.584918,716.37095)"
       d="m 250.51784,136.32977 c 0,6.13681 -4.97487,11.11168 -11.11168,11.11168 -6.13681,0 -11.11168,-4.97487 -11.11168,-11.11168 0,-6.13681 4.97487,-11.11168 11.11168,-11.11168 6.13681,0 11.11168,4.97487 11.11168,11.11168 z"
       sodipodi:ry="11.111678"
       sodipodi:rx="11.111678"
       sodipodi:cy="136.32977"
       sodipodi:cx="239.40616"
       id="path3814"
       style="fill:#aa0000;fill-opacity:1;fill-rule:nonzero;stroke:none"
       sodipodi:type="arc" />
    <path
       sodipodi:type="arc"
       style="fill:#aa0000;fill-opacity:1;fill-rule:nonzero;stroke:none"
       id="path3816"
       sodipodi:cx="239.40616"
       sodipodi:cy="136.32977"
       sodipodi:rx="11.111678"
       sodipodi:ry="11.111678"
       d="m 250.51784,136.32977 c 0,6.13681 -4.97487,11.11168 -11.11168,11.11168 -6.13681,0 -11.11168,-4.97487 -11.11168,-11.11168 0,-6.13681 4.97487,-11.11168 11.11168,-11.11168 6.13681,0 11.11168,4.97487 11.11168,11.11168 z"
       transform="matrix(0.54545455,0,0,0.54545455,73.465649,725.46232)" />
    <path
       transform="matrix(0.54545455,0,0,0.54545455,109.32606,726.97755)"
       d="m 250.51784,136.32977 c 0,6.13681 -4.97487,11.11168 -11.11168,11.11168 -6.13681,0 -11.11168,-4.97487 -11.11168,-11.11168 0,-6.13681 4.97487,-11.11168 11.11168,-11.11168 6.13681,0 11.11168,4.97487 11.11168,11.11168 z"
       sodipodi:ry="11.111678"
       sodipodi:rx="11.111678"
       sodipodi:cy="136.32977"
       sodipodi:cx="239.40616"
       id="path3818"
       style="fill:#2aff80;fill-opacity:1;fill-rule:nonzero;stroke:none"
       sodipodi:type="arc" />
    <path
       transform="matrix(0.54545455,0,0,0.54545455,144.17633,721.92678)"
       d="m 250.51784,136.32977 c 0,6.13681 -4.97487,11.11168 -11.11168,11.11168 -6.13681,0 -11.11168,-4.97487 -11.11168,-11.11168 0,-6.13681 4.97487,-11.11168 11.11168,-11.11168 6.13681,0 11.11168,4.97487 11.11168,11.11168 z"
       sodipodi:ry="11.111678"
       sodipodi:rx="11.111678"
       sodipodi:cy="136.32977"
       sodipodi:cx="239.40616"
       id="path3820"
       style="fill:#aa0000;fill-opacity:1;fill-rule:nonzero;stroke:none"
       sodipodi:type="arc" />
    <path
       sodipodi:type="arc"
       style="fill:#aa0000;fill-opacity:1;fill-rule:nonzero;stroke:none"
       id="path3822"
       sodipodi:cx="239.40616"
       sodipodi:cy="136.32977"
       sodipodi:rx="11.111678"
       sodipodi:ry="11.111678"
       d="m 250.51784,136.32977 c 0,6.13681 -4.97487,11.11168 -11.11168,11.11168 -6.13681,0 -11.11168,-4.97487 -11.11168,-11.11168 0,-6.13681 4.97487,-11.11168 11.11168,-11.11168 6.13681,0 11.11168,4.97487 11.11168,11.11168 z"
       transform="matrix(0.54545455,0,0,0.54545455,181.04689,711.32018)" />
    <path
       style="font-size:medium;font-style:normal;font-variant:normal;font-weight:normal;font-stretch:normal;text-indent:0;text-align:start;text-decoration:none;line-height:normal;letter-spacing:normal;word-spacing:normal;text-transform:none;direction:ltr;block-progression:tb;writing-mode:lr-tb;text-anchor:start;baseline-shift:baseline;color:#000000;fill:#ffeeaa;fill-opacity:1;stroke:none;stroke-width:3.4000001;marker:none;visibility:visible;display:inline;overflow:visible;enable-background:accumulate;font-family:Sans;-inkscape-font-specification:Sans"
       d="m 207.92442,460.2585 c -1.34784,0.20032 -2.70496,0.32571 -4.0625,0.4375 l -0.78125,3.5 c 1.87716,-0.12434 3.76431,-0.34038 5.625,-0.625 l -0.78125,-3.3125 z m 2.40625,10.15625 c -2.94168,0.4634 -5.90082,0.77182 -8.875,0.875 l -0.78125,3.40625 c 3.49944,-0.0814 7.01008,-0.3791 10.46875,-0.9375 l -0.8125,-3.34375 z m 2.1875,9.15625 c -4.3703,0.71692 -8.7938,1.08061 -13.21875,1.09375 l -0.78125,3.4375 c 4.95939,0.0312 9.91604,-0.36893 14.8125,-1.1875 l -0.8125,-3.34375 z m 2.03125,8.40625 c -5.69083,0.96653 -11.45357,1.3945 -17.21875,1.28125 l -0.78125,3.375 c 6.28167,0.17019 12.58126,-0.27589 18.78125,-1.34375 l -0.78125,-3.3125 z m 1.84375,7.8125 c -6.89157,1.19737 -13.89284,1.66368 -20.875,1.40625 l -0.78125,3.375 c 7.52027,0.32378 15.04647,-0.15986 22.46875,-1.46875 l -0.8125,-3.3125 z m 1.75,7.34375 c -8.0358,1.42444 -16.20302,1.94491 -24.34375,1.53125 l -0.75,3.34375 c 8.65334,0.48504 17.36399,-0.0334 25.90625,-1.5625 l -0.8125,-3.3125 z m 1.65625,6.9375 c -9.09725,1.63865 -18.37928,2.19307 -27.59375,1.625 l -0.78125,3.34375 c 9.75406,0.65393 19.5566,0.1254 29.1875,-1.625 l -0.8125,-3.34375 z"
       id="path3826"
       inkscape:connector-curvature="0" />
    <path
       sodipodi:type="star"
       style="fill:#b380ff;fill-opacity:1;fill-rule:nonzero;stroke:none"
       id="path3824"
       sodipodi:sides="5"
       sodipodi:cx="178.29192"
       sodipodi:cy="187.34248"
       sodipodi:r1="62.329357"
       sodipodi:r2="31.164679"
       sodipodi:arg1="0.65322528"
       sodipodi:arg2="1.2815438"
       inkscape:flatsided="false"
       inkscape:rounded="0"
       inkscape:randomized="0"
       d="m 227.78939,225.2232 -40.60819,-8.0107 -29.62043,28.91066 -4.92999,-41.09612 -36.64889,-19.23682 37.56129,-17.3881 6.97017,-40.79967 28.14414,30.34969 40.95669,-5.97876 -20.16725,36.14523 z"
       transform="matrix(0.679079,0.29291543,-0.29291543,0.679079,141.70009,260.49682)"
       inkscape:transform-center-x="-6.0353695"
       inkscape:transform-center-y="-10.145373" />
  </g>
</svg>
